<mxfile host="app.diagrams.net" agent="Mozilla/5.0 (Windows NT 10.0; Win64; x64; rv:131.0) Gecko/20100101 Firefox/131.0" version="25.0.3">
  <diagram name="Page-1" id="DmScZk2urkVB36xNSZ5Q">
    <mxGraphModel dx="928" dy="1656" grid="1" gridSize="10" guides="1" tooltips="1" connect="1" arrows="1" fold="1" page="1" pageScale="1" pageWidth="720" pageHeight="1280" background="none" math="0" shadow="1">
      <root>
        <mxCell id="0" />
        <object label="Window_Frame" id="1">
          <mxCell style="locked=1;" parent="0" />
        </object>
        <mxCell id="SNnv4V6MWg6mL4U4s1p6-1" value="" style="rounded=0;whiteSpace=wrap;html=1;" vertex="1" parent="1">
          <mxGeometry width="720" height="1280" as="geometry" />
        </mxCell>
        <mxCell id="SNnv4V6MWg6mL4U4s1p6-4" value="Components" parent="0" />
        <mxCell id="SNnv4V6MWg6mL4U4s1p6-10" value="&lt;font style=&quot;font-size: 122px;&quot; face=&quot;Comic Sans MS&quot;&gt;&lt;i&gt;eShelf&lt;/i&gt;&lt;/font&gt;" style="text;html=1;align=center;verticalAlign=middle;whiteSpace=wrap;rounded=0;fontSize=16;" vertex="1" parent="SNnv4V6MWg6mL4U4s1p6-4">
          <mxGeometry x="105" y="150" width="525" height="180" as="geometry" />
        </mxCell>
        <mxCell id="SNnv4V6MWg6mL4U4s1p6-11" value="" style="rounded=1;whiteSpace=wrap;html=1;arcSize=50;" vertex="1" parent="SNnv4V6MWg6mL4U4s1p6-4">
          <mxGeometry x="110" y="490" width="500" height="60" as="geometry" />
        </mxCell>
        <mxCell id="SNnv4V6MWg6mL4U4s1p6-12" value="" style="rounded=1;whiteSpace=wrap;html=1;arcSize=50;" vertex="1" parent="SNnv4V6MWg6mL4U4s1p6-4">
          <mxGeometry x="110" y="620" width="500" height="60" as="geometry" />
        </mxCell>
        <mxCell id="SNnv4V6MWg6mL4U4s1p6-13" value="&lt;font face=&quot;Comic Sans MS&quot; color=&quot;#707070&quot;&gt;&lt;i&gt;&lt;font style=&quot;font-size: 35px;&quot;&gt;Email&lt;/font&gt;&lt;/i&gt;&lt;/font&gt;" style="text;html=1;align=center;verticalAlign=middle;whiteSpace=wrap;rounded=0;fontSize=16;" vertex="1" parent="SNnv4V6MWg6mL4U4s1p6-4">
          <mxGeometry x="120" y="450" width="130" height="40" as="geometry" />
        </mxCell>
        <mxCell id="SNnv4V6MWg6mL4U4s1p6-14" value="&lt;font face=&quot;Comic Sans MS&quot; color=&quot;#616161&quot; style=&quot;font-size: 35px;&quot;&gt;&lt;i&gt;Password&lt;/i&gt;&lt;/font&gt;" style="text;html=1;align=center;verticalAlign=middle;whiteSpace=wrap;rounded=0;fontSize=16;" vertex="1" parent="SNnv4V6MWg6mL4U4s1p6-4">
          <mxGeometry x="120" y="580" width="180" height="40" as="geometry" />
        </mxCell>
        <mxCell id="SNnv4V6MWg6mL4U4s1p6-15" value="" style="rounded=1;whiteSpace=wrap;html=1;arcSize=50;" vertex="1" parent="SNnv4V6MWg6mL4U4s1p6-4">
          <mxGeometry x="230" y="910" width="260" height="50" as="geometry" />
        </mxCell>
        <mxCell id="SNnv4V6MWg6mL4U4s1p6-16" value="&lt;font face=&quot;Comic Sans MS&quot; style=&quot;font-size: 35px;&quot;&gt;Sign In&lt;font&gt;&lt;br&gt;&lt;/font&gt;&lt;/font&gt;" style="text;html=1;align=center;verticalAlign=middle;whiteSpace=wrap;rounded=0;fontSize=16;" vertex="1" parent="SNnv4V6MWg6mL4U4s1p6-4">
          <mxGeometry x="240" y="920" width="240" height="30" as="geometry" />
        </mxCell>
        <mxCell id="SNnv4V6MWg6mL4U4s1p6-17" value="&lt;i&gt;&lt;font face=&quot;Comic Sans MS&quot;&gt;Forgot your Password?&lt;/font&gt;&lt;/i&gt;" style="text;html=1;align=center;verticalAlign=middle;whiteSpace=wrap;rounded=0;fontSize=16;" vertex="1" parent="SNnv4V6MWg6mL4U4s1p6-4">
          <mxGeometry x="260" y="970" width="200" height="30" as="geometry" />
        </mxCell>
        <mxCell id="SNnv4V6MWg6mL4U4s1p6-19" value="" style="endArrow=none;html=1;rounded=0;fontSize=12;startSize=8;endSize=8;curved=1;" edge="1" parent="SNnv4V6MWg6mL4U4s1p6-4">
          <mxGeometry width="50" height="50" relative="1" as="geometry">
            <mxPoint x="230" y="1020" as="sourcePoint" />
            <mxPoint x="490" y="1020" as="targetPoint" />
          </mxGeometry>
        </mxCell>
        <mxCell id="SNnv4V6MWg6mL4U4s1p6-20" value="&lt;div align=&quot;right&quot;&gt;&lt;font face=&quot;Comic Sans MS&quot; style=&quot;font-size: 22px;&quot;&gt;Sign in with Google&amp;nbsp; &lt;br&gt;&lt;/font&gt;&lt;/div&gt;" style="rounded=1;whiteSpace=wrap;html=1;arcSize=50;align=right;" vertex="1" parent="SNnv4V6MWg6mL4U4s1p6-4">
          <mxGeometry x="230" y="1040" width="260" height="50" as="geometry" />
        </mxCell>
        <mxCell id="SNnv4V6MWg6mL4U4s1p6-23" value="&lt;font face=&quot;Comic Sans MS&quot; style=&quot;font-size: 20px;&quot;&gt;Doesn&#39;t have an account? &lt;b&gt;Sign up&lt;/b&gt;&lt;/font&gt;" style="text;html=1;align=center;verticalAlign=middle;whiteSpace=wrap;rounded=0;fontSize=16;" vertex="1" parent="SNnv4V6MWg6mL4U4s1p6-4">
          <mxGeometry x="180" y="1190" width="330" height="30" as="geometry" />
        </mxCell>
        <mxCell id="SNnv4V6MWg6mL4U4s1p6-26" value="" style="shape=image;verticalLabelPosition=bottom;verticalAlign=top;imageAspect=0;image=https://upload.wikimedia.org/wikipedia/commons/c/c1/Google_%22G%22_logo.svg;" vertex="1" parent="SNnv4V6MWg6mL4U4s1p6-4">
          <mxGeometry x="250" y="1050" width="30" height="30" as="geometry" />
        </mxCell>
      </root>
    </mxGraphModel>
  </diagram>
</mxfile>
